<svg width="313" height="254" viewBox="0 0 313 254" fill="none" xmlns="http://www.w3.org/2000/svg">
<ellipse cx="271" cy="124" rx="42" ry="44" fill="#87969F"/>
<ellipse cx="195" cy="137.5" rx="63" ry="45.5" fill="#87969F"/>
<ellipse cx="194" cy="131.5" rx="64" ry="45.5" fill="#ECECEC"/>
<circle cx="270.5" cy="137.5" r="42.5" fill="#87969F"/>
<path d="M248 117.5C248 134.897 219.959 149 185.369 149C150.78 149 124 134.897 124 117.5C124 100.103 150.78 86 185.369 86C219.959 86 248 100.103 248 117.5Z" fill="#ECECEC"/>
<ellipse cx="150" cy="71" rx="67" ry="71" fill="#87969F"/>
<ellipse cx="151" cy="79.5" rx="66" ry="69.5" fill="#ECECEC"/>
<ellipse cx="267" cy="130" rx="42" ry="44" fill="#ECECEC"/>
<ellipse cx="41.5" cy="138" rx="41.5" ry="39" fill="#87969F"/>
<ellipse cx="39.5" cy="135.5" rx="35.5" ry="36.5" fill="#ECECEC"/>
<ellipse cx="105" cy="137.5" rx="62" ry="45.5" fill="#87969F"/>
<ellipse cx="105" cy="131.5" rx="62" ry="45.5" fill="#ECECEC"/>
<ellipse cx="99" cy="133.5" rx="52" ry="22.5" fill="#ECECEC"/>
<circle cx="217" cy="92" r="50" fill="#87969F"/>
<circle cx="83" cy="88" r="61" fill="#87969F"/>
<ellipse cx="85" cy="94.5" rx="59" ry="59.5" fill="#ECECEC"/>
<circle cx="217" cy="99" r="50" fill="#ECECEC"/>
<path d="M132.391 250.513L122.601 247.325L129.503 232.718L138.797 239.78L132.391 250.513Z" fill="#D9D9D9"/>
<path d="M132.391 250.513L122.601 247.325L129.503 232.718L138.797 239.78L132.391 250.513Z" fill="#D9D9D9"/>
<rect x="136.181" y="231.924" width="32.7967" height="4" transform="rotate(-60.5838 136.181 231.924)" fill="#D9D9D9"/>
<path d="M132.391 250.513L122.601 247.325L129.503 232.718L138.797 239.78L132.391 250.513Z" fill="#D9D9D9"/>
<path d="M132.391 250.513L122.601 247.325L129.503 232.718L138.797 239.78L132.391 250.513Z" fill="#D9D9D9"/>
<rect x="136.181" y="231.924" width="32.7967" height="4" transform="rotate(-60.5838 136.181 231.924)" fill="#D9D9D9"/>
<path d="M219.875 239.158L210.085 235.97L216.987 221.363L226.281 228.424L219.875 239.158Z" fill="#D9D9D9"/>
<path d="M219.875 239.158L210.085 235.97L216.987 221.363L226.281 228.424L219.875 239.158Z" fill="#D9D9D9"/>
<rect x="223.665" y="220.568" width="32.7967" height="4" transform="rotate(-60.5838 223.665 220.568)" fill="#D9D9D9"/>
<path d="M69.8746 239.158L60.085 235.97L66.9867 221.363L76.2811 228.424L69.8746 239.158Z" fill="#D9D9D9"/>
<path d="M69.8746 239.158L60.085 235.97L66.9867 221.363L76.2811 228.424L69.8746 239.158Z" fill="#D9D9D9"/>
<rect x="73.6653" y="220.568" width="32.7967" height="4" transform="rotate(-60.5838 73.6653 220.568)" fill="#D9D9D9"/>
</svg>
