<svg width="374" height="194" viewBox="0 0 374 194" fill="none" xmlns="http://www.w3.org/2000/svg">
<ellipse cx="339.093" cy="102.995" rx="34.8852" ry="36.5464" fill="#AABAC3"/>
<ellipse cx="275.967" cy="114.208" rx="52.3279" ry="37.7924" fill="#AABAC3"/>
<ellipse cx="275.137" cy="109.224" rx="53.1585" ry="37.7924" fill="#5B5959"/>
<circle cx="338.678" cy="114.208" r="35.3005" fill="#AABAC3"/>
<path d="M319.989 97.5956C319.989 112.046 296.698 123.76 267.968 123.76C239.238 123.76 216.995 112.046 216.995 97.5956C216.995 83.1456 239.238 71.4316 267.968 71.4316C296.698 71.4316 319.989 83.1456 319.989 97.5956Z" fill="#5B5959"/>
<ellipse cx="238.59" cy="58.9727" rx="55.6503" ry="58.9727" fill="#AABAC3"/>
<ellipse cx="239.421" cy="66.0328" rx="54.8197" ry="57.7268" fill="#5B5959"/>
<ellipse cx="335.771" cy="107.978" rx="34.8852" ry="36.5464" fill="#5B5959"/>
<ellipse cx="148.47" cy="114.623" rx="34.4699" ry="32.3934" fill="#AABAC3"/>
<ellipse cx="146.809" cy="112.546" rx="29.4863" ry="30.3169" fill="#5B5959"/>
<ellipse cx="201.213" cy="114.208" rx="51.4973" ry="37.7924" fill="#AABAC3"/>
<ellipse cx="201.213" cy="109.224" rx="51.4973" ry="37.7924" fill="#5B5959"/>
<ellipse cx="196.229" cy="110.885" rx="43.1913" ry="18.6885" fill="#5B5959"/>
<circle cx="294.241" cy="76.4153" r="41.5301" fill="#AABAC3"/>
<circle cx="182.94" cy="73.0929" r="50.6667" fill="#AABAC3"/>
<ellipse cx="184.601" cy="78.4918" rx="49.0055" ry="49.4208" fill="#5B5959"/>
<circle cx="294.241" cy="82.2295" r="41.5301" fill="#5B5959"/>
<ellipse cx="271" cy="135" rx="42" ry="44" fill="#6D787E"/>
<ellipse cx="195" cy="148.5" rx="63" ry="45.5" fill="#6D787E"/>
<ellipse cx="194" cy="142.5" rx="64" ry="45.5" fill="#ECECEC"/>
<circle cx="270.5" cy="148.5" r="42.5" fill="#6D787E"/>
<path d="M248 128.5C248 145.897 219.959 160 185.369 160C150.78 160 124 145.897 124 128.5C124 111.103 150.78 97 185.369 97C219.959 97 248 111.103 248 128.5Z" fill="#ECECEC"/>
<ellipse cx="150" cy="82" rx="67" ry="71" fill="#6D787E"/>
<ellipse cx="151" cy="90.5" rx="66" ry="69.5" fill="#ECECEC"/>
<ellipse cx="267" cy="141" rx="42" ry="44" fill="#ECECEC"/>
<ellipse cx="41.5" cy="149" rx="41.5" ry="39" fill="#6D787E"/>
<ellipse cx="39.5" cy="146.5" rx="35.5" ry="36.5" fill="#ECECEC"/>
<ellipse cx="105" cy="148.5" rx="62" ry="45.5" fill="#6D787E"/>
<ellipse cx="105" cy="142.5" rx="62" ry="45.5" fill="#ECECEC"/>
<ellipse cx="99" cy="144.5" rx="52" ry="22.5" fill="#ECECEC"/>
<circle cx="217" cy="103" r="50" fill="#6D787E"/>
<circle cx="83" cy="99" r="61" fill="#6D787E"/>
<ellipse cx="85" cy="105.5" rx="59" ry="59.5" fill="#ECECEC"/>
<circle cx="217" cy="110" r="50" fill="#ECECEC"/>
</svg>
