<svg width="313" height="292" viewBox="0 0 313 292" fill="none" xmlns="http://www.w3.org/2000/svg">
<path d="M168.393 138L151.429 192.133L180 207.067L142.5 292L151.429 213.6L130 192.133L168.393 138Z" fill="#FFF280"/>
<ellipse cx="271" cy="124" rx="42" ry="44" fill="#87969F"/>
<ellipse cx="195" cy="137.5" rx="63" ry="45.5" fill="#87969F"/>
<ellipse cx="194" cy="131.5" rx="64" ry="45.5" fill="#ECECEC"/>
<circle cx="270.5" cy="137.5" r="42.5" fill="#87969F"/>
<path d="M248 117.5C248 134.897 219.959 149 185.369 149C150.78 149 124 134.897 124 117.5C124 100.103 150.78 86 185.369 86C219.959 86 248 100.103 248 117.5Z" fill="#ECECEC"/>
<ellipse cx="150" cy="71" rx="67" ry="71" fill="#87969F"/>
<ellipse cx="151" cy="79.5" rx="66" ry="69.5" fill="#ECECEC"/>
<ellipse cx="267" cy="130" rx="42" ry="44" fill="#ECECEC"/>
<ellipse cx="41.5" cy="138" rx="41.5" ry="39" fill="#87969F"/>
<ellipse cx="39.5" cy="135.5" rx="35.5" ry="36.5" fill="#ECECEC"/>
<ellipse cx="105" cy="137.5" rx="62" ry="45.5" fill="#87969F"/>
<ellipse cx="105" cy="131.5" rx="62" ry="45.5" fill="#ECECEC"/>
<ellipse cx="99" cy="133.5" rx="52" ry="22.5" fill="#ECECEC"/>
<circle cx="217" cy="92" r="50" fill="#87969F"/>
<circle cx="83" cy="88" r="61" fill="#87969F"/>
<ellipse cx="85" cy="94.5" rx="59" ry="59.5" fill="#ECECEC"/>
<circle cx="217" cy="99" r="50" fill="#ECECEC"/>
</svg>
