<svg width="362" height="246" viewBox="0 0 362 246" fill="none" xmlns="http://www.w3.org/2000/svg">
<circle cx="108" cy="108" r="73" fill="#F9BA3F"/>
<rect x="105" width="7" height="24" fill="#F9BA3F"/>
<rect x="105" y="192" width="7" height="24" fill="#F9BA3F"/>
<rect x="192" y="111" width="7" height="24" transform="rotate(-90 192 111)" fill="#F9BA3F"/>
<circle cx="108.5" cy="107.5" r="44.5" fill="#FFDE9F"/>
<rect x="186.971" y="30" width="7" height="24" transform="rotate(45 186.971 30)" fill="#F9BA3F"/>
<rect x="40.9706" y="170" width="7" height="24" transform="rotate(45 40.9706 170)" fill="#F9BA3F"/>
<rect y="111" width="7" height="24" transform="rotate(-90 0 111)" fill="#F9BA3F"/>
<rect x="175" y="174.95" width="7" height="24" transform="rotate(-45 175 174.95)" fill="#F9BA3F"/>
<rect x="24" y="34.9497" width="7" height="24" transform="rotate(-45 24 34.9497)" fill="#F9BA3F"/>
<ellipse cx="320" cy="187" rx="42" ry="44" fill="#67BEEE"/>
<ellipse cx="244" cy="200.5" rx="63" ry="45.5" fill="#67BEEE"/>
<ellipse cx="243" cy="194.5" rx="64" ry="45.5" fill="#FBFAFA"/>
<circle cx="319.5" cy="200.5" r="42.5" fill="#67BEEE"/>
<path d="M297 180.5C297 197.897 268.959 212 234.369 212C199.78 212 173 197.897 173 180.5C173 163.103 199.78 149 234.369 149C268.959 149 297 163.103 297 180.5Z" fill="#FBFAFA"/>
<ellipse cx="199" cy="134" rx="67" ry="71" fill="#67BEEE"/>
<ellipse cx="200" cy="142.5" rx="66" ry="69.5" fill="#FBFAFA"/>
<ellipse cx="316" cy="193" rx="42" ry="44" fill="#FBFAFA"/>
<ellipse cx="90.5" cy="201" rx="41.5" ry="39" fill="#67BEEE"/>
<ellipse cx="88.5" cy="198.5" rx="35.5" ry="36.5" fill="#FBFAFA"/>
<ellipse cx="154" cy="200.5" rx="62" ry="45.5" fill="#67BEEE"/>
<ellipse cx="154" cy="194.5" rx="62" ry="45.5" fill="#FBFAFA"/>
<ellipse cx="148" cy="196.5" rx="52" ry="22.5" fill="#FBFAFA"/>
<circle cx="266" cy="155" r="50" fill="#67BEEE"/>
<circle cx="132" cy="151" r="61" fill="#67BEEE"/>
<ellipse cx="134" cy="157.5" rx="59" ry="59.5" fill="#FBFAFA"/>
<circle cx="266" cy="162" r="50" fill="#FBFAFA"/>
</svg>
