<svg width="313" height="247" viewBox="0 0 313 247" fill="none" xmlns="http://www.w3.org/2000/svg">
<ellipse cx="271" cy="124" rx="42" ry="44" fill="#87969F"/>
<ellipse cx="195" cy="137.5" rx="63" ry="45.5" fill="#87969F"/>
<ellipse cx="194" cy="131.5" rx="64" ry="45.5" fill="#ECECEC"/>
<circle cx="270.5" cy="137.5" r="42.5" fill="#87969F"/>
<path d="M248 117.5C248 134.897 219.959 149 185.369 149C150.78 149 124 134.897 124 117.5C124 100.103 150.78 86 185.369 86C219.959 86 248 100.103 248 117.5Z" fill="#ECECEC"/>
<ellipse cx="150" cy="71" rx="67" ry="71" fill="#87969F"/>
<ellipse cx="151" cy="79.5" rx="66" ry="69.5" fill="#ECECEC"/>
<ellipse cx="267" cy="130" rx="42" ry="44" fill="#ECECEC"/>
<ellipse cx="41.5" cy="138" rx="41.5" ry="39" fill="#87969F"/>
<ellipse cx="39.5" cy="135.5" rx="35.5" ry="36.5" fill="#ECECEC"/>
<ellipse cx="105" cy="137.5" rx="62" ry="45.5" fill="#87969F"/>
<ellipse cx="105" cy="131.5" rx="62" ry="45.5" fill="#ECECEC"/>
<ellipse cx="99" cy="133.5" rx="52" ry="22.5" fill="#ECECEC"/>
<circle cx="217" cy="92" r="50" fill="#87969F"/>
<circle cx="83" cy="88" r="61" fill="#87969F"/>
<ellipse cx="85" cy="94.5" rx="59" ry="59.5" fill="#ECECEC"/>
<circle cx="217" cy="99" r="50" fill="#ECECEC"/>
<rect x="204.072" y="190" width="2" height="24.3601" transform="rotate(21.8646 204.072 190)" fill="#4CA2DF"/>
<rect x="107.178" y="204.752" width="2" height="30.0151" transform="rotate(21.8646 107.178 204.752)" fill="#4CA2DF"/>
<rect x="94.072" y="187" width="2" height="24.3601" transform="rotate(21.8646 94.072 187)" fill="#4CA2DF"/>
<rect x="216.707" y="213" width="2" height="31.4343" transform="rotate(21.8646 216.707 213)" fill="#4CA2DF"/>
<rect x="138.366" y="212.3" width="2" height="35.8892" transform="rotate(21.8646 138.366 212.3)" fill="#4CA2DF"/>
<rect x="174.202" y="196" width="2" height="24.7085" transform="rotate(21.8646 174.202 196)" fill="#4CA2DF"/>
<rect x="254.334" y="191.363" width="2" height="30.4338" transform="rotate(21.8646 254.334 191.363)" fill="#4CA2DF"/>
<rect x="59.7749" y="190" width="2" height="34.303" transform="rotate(21.8646 59.7749 190)" fill="#4CA2DF"/>
</svg>
