<svg width="313" height="262" viewBox="0 0 313 262" fill="none" xmlns="http://www.w3.org/2000/svg">
<ellipse cx="271" cy="124" rx="42" ry="44" fill="#87969F"/>
<ellipse cx="195" cy="137.5" rx="63" ry="45.5" fill="#87969F"/>
<ellipse cx="194" cy="131.5" rx="64" ry="45.5" fill="#ECECEC"/>
<circle cx="270.5" cy="137.5" r="42.5" fill="#87969F"/>
<path d="M248 117.5C248 134.897 219.959 149 185.369 149C150.78 149 124 134.897 124 117.5C124 100.103 150.78 86 185.369 86C219.959 86 248 100.103 248 117.5Z" fill="#ECECEC"/>
<ellipse cx="150" cy="71" rx="67" ry="71" fill="#87969F"/>
<ellipse cx="151" cy="79.5" rx="66" ry="69.5" fill="#ECECEC"/>
<ellipse cx="267" cy="130" rx="42" ry="44" fill="#ECECEC"/>
<ellipse cx="41.5" cy="138" rx="41.5" ry="39" fill="#87969F"/>
<ellipse cx="39.5" cy="135.5" rx="35.5" ry="36.5" fill="#ECECEC"/>
<ellipse cx="105" cy="137.5" rx="62" ry="45.5" fill="#87969F"/>
<ellipse cx="105" cy="131.5" rx="62" ry="45.5" fill="#ECECEC"/>
<ellipse cx="99" cy="133.5" rx="52" ry="22.5" fill="#ECECEC"/>
<circle cx="217" cy="92" r="50" fill="#87969F"/>
<circle cx="83" cy="88" r="61" fill="#87969F"/>
<ellipse cx="85" cy="94.5" rx="59" ry="59.5" fill="#ECECEC"/>
<circle cx="217" cy="99" r="50" fill="#ECECEC"/>
<path d="M138.5 206.5C138.5 210.453 135.505 213.5 132 213.5C128.495 213.5 125.5 210.453 125.5 206.5C125.5 202.547 128.495 199.5 132 199.5C135.505 199.5 138.5 202.547 138.5 206.5Z" fill="white" stroke="#67BEEE" stroke-width="3"/>
<path d="M200.5 231.5C200.5 235.453 197.505 238.5 194 238.5C190.495 238.5 187.5 235.453 187.5 231.5C187.5 227.547 190.495 224.5 194 224.5C197.505 224.5 200.5 227.547 200.5 231.5Z" fill="white" stroke="#67BEEE" stroke-width="3"/>
<path d="M250.5 215.5C250.5 219.453 247.505 222.5 244 222.5C240.495 222.5 237.5 219.453 237.5 215.5C237.5 211.547 240.495 208.5 244 208.5C247.505 208.5 250.5 211.547 250.5 215.5Z" fill="white" stroke="#67BEEE" stroke-width="3"/>
<path d="M122.5 253.5C122.5 257.453 119.505 260.5 116 260.5C112.495 260.5 109.5 257.453 109.5 253.5C109.5 249.547 112.495 246.5 116 246.5C119.505 246.5 122.5 249.547 122.5 253.5Z" fill="white" stroke="#67BEEE" stroke-width="3"/>
<path d="M73.5 223.5C73.5 227.453 70.5055 230.5 67 230.5C63.4945 230.5 60.5 227.453 60.5 223.5C60.5 219.547 63.4945 216.5 67 216.5C70.5055 216.5 73.5 219.547 73.5 223.5Z" fill="white" stroke="#67BEEE" stroke-width="3"/>
</svg>
